# xmcd
#
# Track frame offsets: 
#        150
#        13183
#        27529
#        52849
#        68957
#        86645
#        102568
#        118154
#        137394
#        157920
#        188325
#
# Disc length: 2690 seconds
#
# Revision: 0
# Processed by: cddbd v1.5.1PL0 Copyright (c) Steve Scherf et al.
# Submitted via: ExactAudioCopy v0.95a5
#
DISCID=8a0a800b
DTITLE=OSCAR BENTON - THE BLUES LEGEND
DYEAR=1993
DGENRE=Blues
TTITLE0=Every day I have the blues
TTITLE1=Going back to Louisiana
TTITLE2=I'd rather go blind
TTITLE3=Ain't love the key
TTITLE4=Let me go
TTITLE5=Smack dab in the middle
TTITLE6=Wasted tears
TTITLE7=don't let her know
TTITLE8=Give it up to love
TTITLE9=You're no good
TTITLE10=My old friend the blues
EXTD=
EXTT0=
EXTT1=
EXTT2=
EXTT3=
EXTT4=
EXTT5=
EXTT6=
EXTT7=
EXTT8=
EXTT9=
EXTT10=
PLAYORDER=
